<svg aria-hidden="true" style="position:absolute;width:0;height:0;overflow:hidden" xmlns="http://www.w3.org/2000/svg"><defs>
<symbol id="icon-tablet" viewBox="0 0 32 32"><path d="M25 0H5C3.35 0 2 1.35 2 3v26c0 1.65 1.35 3 3 3h20c1.65 0 3-1.35 3-3V3c0-1.65-1.35-3-3-3zM15 31a1 1 0 1 1 0-2 1 1 0 0 1 0 2zm9-3H6V4h18v24z"/></symbol>
<symbol id="icon-instagram" viewBox="0 0 32 32"><path d="M16 2.881c4.275 0 4.781.019 6.462.094 1.563.069 2.406.331 2.969.55a4.952 4.952 0 0 1 1.837 1.194 5.015 5.015 0 0 1 1.2 1.838c.219.563.481 1.412.55 2.969.075 1.688.094 2.194.094 6.463s-.019 4.781-.094 6.463c-.069 1.563-.331 2.406-.55 2.969a4.94 4.94 0 0 1-1.194 1.837 5.02 5.02 0 0 1-1.837 1.2c-.563.219-1.413.481-2.969.55-1.688.075-2.194.094-6.463.094s-4.781-.019-6.463-.094c-1.563-.069-2.406-.331-2.969-.55a4.952 4.952 0 0 1-1.838-1.194 5.02 5.02 0 0 1-1.2-1.837c-.219-.563-.481-1.413-.55-2.969-.075-1.688-.094-2.194-.094-6.463s.019-4.781.094-6.463c.069-1.563.331-2.406.55-2.969a4.964 4.964 0 0 1 1.194-1.838 5.015 5.015 0 0 1 1.838-1.2c.563-.219 1.412-.481 2.969-.55 1.681-.075 2.188-.094 6.463-.094zM16 0c-4.344 0-4.887.019-6.594.094-1.7.075-2.869.35-3.881.744-1.056.412-1.95.956-2.837 1.85a7.833 7.833 0 0 0-1.85 2.831C.444 6.538.169 7.7.094 9.4.019 11.113 0 11.656 0 16s.019 4.887.094 6.594c.075 1.7.35 2.869.744 3.881.413 1.056.956 1.95 1.85 2.837a7.82 7.82 0 0 0 2.831 1.844c1.019.394 2.181.669 3.881.744 1.706.075 2.25.094 6.594.094s4.888-.019 6.594-.094c1.7-.075 2.869-.35 3.881-.744 1.05-.406 1.944-.956 2.831-1.844s1.438-1.781 1.844-2.831c.394-1.019.669-2.181.744-3.881.075-1.706.094-2.25.094-6.594s-.019-4.887-.094-6.594c-.075-1.7-.35-2.869-.744-3.881a7.506 7.506 0 0 0-1.831-2.844A7.82 7.82 0 0 0 26.482.843C25.463.449 24.301.174 22.601.099c-1.712-.081-2.256-.1-6.6-.1z"/><path d="M16 7.781c-4.537 0-8.219 3.681-8.219 8.219s3.681 8.219 8.219 8.219 8.219-3.681 8.219-8.219A8.221 8.221 0 0 0 16 7.781zm0 13.55a5.331 5.331 0 1 1 0-10.663 5.331 5.331 0 0 1 0 10.663zM26.462 7.456a1.919 1.919 0 1 1-3.838 0 1.919 1.919 0 0 1 3.838 0z"/></symbol>
<symbol id="icon-smartphone"><path d="M8.5 0h-7C.673 0 0 .673 0 1.5v13c0 .827.673 1.5 1.5 1.5h7c.827 0 1.5-.673 1.5-1.5v-13C10 .673 9.327 0 8.5 0Zm-7 1h7a.5.5 0 0 1 .5.5V12H1V1.5a.5.5 0 0 1 .5-.5Zm7 14h-7a.5.5 0 0 1-.5-.5V13h8v1.5a.5.5 0 0 1-.5.5Z" fill="#757575"/><path d="M2.354 13.739a.445.445 0 0 1 0 .66.525.525 0 0 1-.708 0 .445.445 0 0 1 0-.66.525.525 0 0 1 .708 0Z" fill="#757575"/></symbol>
<symbol id="icon-envelope"><path d="M14.5 0h-13C.673 0 0 .673 0 1.5v9c0 .827.673 1.5 1.5 1.5h13c.827 0 1.5-.673 1.5-1.5v-9c0-.827-.673-1.5-1.5-1.5Zm0 1c.068 0 .133.014.192.039L8 6.839l-6.692-5.8A.498.498 0 0 1 1.5 1h13Zm0 10h-13a.5.5 0 0 1-.5-.5V2.095l6.672 5.783a.5.5 0 0 0 .656 0L15 2.095V10.5a.5.5 0 0 1-.5.5Z" fill="#AFB1B8"/></symbol>
<symbol id="icon-facebook"><path d="M13.33 3.32h1.827V.14a23.576 23.576 0 0 0-2.66-.14C9.864 0 8.06 1.656 8.06 4.7v2.8H5.156v3.555H8.06V20h3.562v-8.944h2.787l.443-3.555h-3.231V5.05c0-1.027.277-1.73 1.709-1.73Z" fill="#AFB1B8"/></g><defs><clipPath id="a"><path fill="#fff" d="M0 0h20v20H0z"/></symbol>
<symbol id="icon-linkedin"><path d="M19.995 20H20v-7.336c0-3.588-.773-6.352-4.967-6.352-2.017 0-3.37 1.106-3.923 2.156h-.058V6.647H7.074v13.352h4.142v-6.611c0-1.741.33-3.425 2.486-3.425 2.124 0 2.155 1.987 2.155 3.536V20h4.138ZM.33 6.647h4.147V20H.33V6.647ZM2.402 0A2.402 2.402 0 0 0 0 2.402c0 1.325 1.076 2.424 2.402 2.424 1.325 0 2.401-1.098 2.401-2.424A2.403 2.403 0 0 0 2.402 0Z"/></g><defs><clipPath id="a"><path fill="#fff" d="M0 0h20v20H0z"/></symbol>
<symbol id="icon-twitter"><path d="M20 3.799a8.549 8.549 0 0 1-2.363.647 4.077 4.077 0 0 0 1.804-2.266 8.192 8.192 0 0 1-2.6.992A4.099 4.099 0 0 0 9.75 5.976c0 .325.027.638.095.935-3.409-.166-6.425-1.8-8.451-4.288A4.128 4.128 0 0 0 .83 4.694c0 1.42.732 2.679 1.821 3.407A4.05 4.05 0 0 1 .8 7.597v.045a4.119 4.119 0 0 0 3.285 4.03 4.09 4.09 0 0 1-1.075.134c-.262 0-.527-.015-.776-.07.531 1.624 2.038 2.818 3.831 2.856a8.238 8.238 0 0 1-5.084 1.75A7.67 7.67 0 0 1 0 16.284a11.543 11.543 0 0 0 6.29 1.84c7.545 0 11.67-6.25 11.67-11.668 0-.18-.006-.356-.015-.53A8.179 8.179 0 0 0 20 3.8Z" fill="#AFB1B8"/></symbol>
<symbol id="icon-instagram"><path d="M19.98 5.88c-.046-1.063-.218-1.793-.464-2.426a4.88 4.88 0 0 0-1.157-1.774 4.922 4.922 0 0 0-1.77-1.153C15.952.281 15.226.11 14.163.063 13.093.012 12.753 0 10.037 0 7.322 0 6.982.012 5.915.059 4.853.105 4.122.277 3.49.523A4.88 4.88 0 0 0 1.715 1.68 4.924 4.924 0 0 0 .563 3.45C.316 4.087.145 4.813.098 5.876c-.051 1.07-.063 1.41-.063 4.126 0 2.715.012 3.055.059 4.122.047 1.063.219 1.793.465 2.426a4.932 4.932 0 0 0 1.156 1.774c.5.508 1.106.902 1.77 1.152.637.247 1.364.419 2.426.465 1.067.047 1.407.059 4.122.059 2.716 0 3.056-.012 4.122-.059 1.063-.046 1.793-.218 2.426-.464a5.116 5.116 0 0 0 2.927-2.927c.246-.637.418-1.364.465-2.426.047-1.067.058-1.407.058-4.122s-.004-3.055-.05-4.122Zm-1.8 8.166c-.044.977-.208 1.504-.344 1.856a3.318 3.318 0 0 1-1.9 1.898c-.35.137-.882.301-1.855.344-1.055.047-1.371.059-4.04.059-2.668 0-2.989-.012-4.04-.059-.977-.043-1.504-.207-1.856-.344a3.077 3.077 0 0 1-1.148-.746 3.11 3.11 0 0 1-.747-1.148c-.136-.352-.3-.883-.343-1.856-.047-1.055-.059-1.372-.059-4.04 0-2.669.012-2.99.059-4.04.043-.977.207-1.504.343-1.856A3.04 3.04 0 0 1 3 2.965a3.105 3.105 0 0 1 1.15-.746c.35-.137.882-.3 1.855-.344 1.055-.046 1.372-.058 4.04-.058 2.672 0 2.989.012 4.04.058.977.043 1.504.207 1.856.344.433.16.828.414 1.148.746.332.325.586.715.747 1.15.136.35.3.882.343 1.855.047 1.055.059 1.371.059 4.04 0 2.668-.012 2.98-.059 4.036Z"/><path d="M10.037 4.864A5.139 5.139 0 0 0 4.9 10.002a5.139 5.139 0 0 0 10.276 0 5.139 5.139 0 0 0-5.138-5.138Zm0 8.47a3.333 3.333 0 1 1 .001-6.666 3.333 3.333 0 0 1 0 6.667ZM16.578 4.661a1.2 1.2 0 1 1-2.4 0 1.2 1.2 0 0 1 2.4 0Z"/></symbol>
<symbol id="group1"><path d="m167.316 73.338-18.469-18.604 2.05-10.097a4.654 4.654 0 0 0 1.659.319h.014a4.723 4.723 0 1 0-4.394-3.14l-10.85 1.325-17.698-17.791a1.17 1.17 0 0 0-.824-.35c-.306.002-.6.123-.817.34l-3.308 3.29a1.166 1.166 0 0 0 0 1.65l1.78 1.805c-6.897 12.683-4.657 28.39 5.511 38.638.094.09.202.161.32.213a6.677 6.677 0 0 0-.114 1.197v13.534h-14a5.841 5.841 0 0 0-5.834 5.833v2.333c0 .645.523 1.167 1.167 1.167h53.667c.644 0 1.166-.522 1.166-1.167V91.5a5.84 5.84 0 0 0-5.833-5.833h-14v-5.998c2.193.46 4.428.694 6.669.7a32.486 32.486 0 0 0 15.4-3.901l1.789 1.8c.217.221.514.347.824.35a1.17 1.17 0 0 0 .817-.34l3.308-3.29a1.166 1.166 0 0 0 0-1.65Zm-16.391-34.703a2.332 2.332 0 1 1 1.644 3.988h-.007a2.334 2.334 0 0 1-1.633-3.988h-.004Zm-2.747 7.666-1.309 6.444-2.571-2.587 3.88-3.857Zm-1.325-1.973-4.2 4.176-3.249-3.267 7.449-.909ZM152.509 88a3.5 3.5 0 0 1 3.5 3.5v1.167h-51.333V91.5a3.5 3.5 0 0 1 3.5-3.5h44.333Zm-16.333-4.667v2.334h-11.667v-2.334h11.667ZM124.509 81v-8.867c0-2.83 2.617-5.133 5.833-5.133 3.217 0 5.834 2.303 5.834 5.133V81h-11.667Zm14-3.71v-5.157c0-4.117-3.663-7.466-8.167-7.466a8.313 8.313 0 0 0-7.177 3.907 30.339 30.339 0 0 1-4.984-34.753l40.691 40.925a30.232 30.232 0 0 1-20.363 2.544Zm24.695-1.496-1.644-1.653-42.768-43.025-1.651-1.655 1.651-1.645 17.358 17.456c.008 0 .013.015.021.021l28.688 28.856-1.655 1.645Z" fill="#212121"/><path d="m167.316 73.338-18.469-18.604 2.05-10.097a4.654 4.654 0 0 0 1.659.319h.014a4.723 4.723 0 1 0-4.394-3.14l-10.85 1.325-17.698-17.791a1.17 1.17 0 0 0-.824-.35c-.306.002-.6.123-.817.34l-3.308 3.29a1.166 1.166 0 0 0 0 1.65l1.78 1.805c-6.897 12.683-4.657 28.39 5.511 38.638.094.09.202.161.32.213a6.677 6.677 0 0 0-.114 1.197v13.534h-14a5.841 5.841 0 0 0-5.834 5.833v2.333c0 .645.523 1.167 1.167 1.167h53.667c.644 0 1.166-.522 1.166-1.167V91.5a5.84 5.84 0 0 0-5.833-5.833h-14v-5.998c2.193.46 4.428.694 6.669.7a32.486 32.486 0 0 0 15.4-3.901l1.789 1.8c.217.221.514.347.824.35a1.17 1.17 0 0 0 .817-.34l3.308-3.29a1.166 1.166 0 0 0 0-1.65Zm-16.391-34.703a2.332 2.332 0 1 1 1.644 3.988h-.007a2.334 2.334 0 0 1-1.633-3.988h-.004Zm-2.747 7.666-1.309 6.444-2.571-2.587 3.88-3.857Zm-1.325-1.973-4.2 4.176-3.249-3.267 7.449-.909ZM152.509 88a3.5 3.5 0 0 1 3.5 3.5v1.167h-51.333V91.5a3.5 3.5 0 0 1 3.5-3.5h44.333Zm-16.333-4.667v2.334h-11.667v-2.334h11.667ZM124.509 81v-8.867c0-2.83 2.617-5.133 5.833-5.133 3.217 0 5.834 2.303 5.834 5.133V81h-11.667Zm14-3.71v-5.157c0-4.117-3.663-7.466-8.167-7.466a8.313 8.313 0 0 0-7.177 3.907 30.339 30.339 0 0 1-4.984-34.753l40.691 40.925a30.232 30.232 0 0 1-20.363 2.544Zm24.695-1.496-1.644-1.653-42.768-43.025-1.651-1.655 1.651-1.645 17.358 17.456c.008 0 .013.015.021.021l28.688 28.856-1.655 1.645Z" fill="#000" fill-opacity=".2"/><path d="M130.353 69.333h-.011a3.5 3.5 0 1 0-.01 7h.01a3.5 3.5 0 0 0 .011-7Zm.816 4.328a1.165 1.165 0 1 1-1.643-1.655c.217-.216.51-.338.816-.34a1.167 1.167 0 0 1 .817 1.995h.01Z" fill="#2196F3"/></symbol>
<symbol id="group2"><path d="M168.461 58.471c-.003-18.49-14.995-33.475-33.486-33.471-18.489.004-33.475 14.996-33.471 33.486A33.478 33.478 0 0 0 124.8 90.37c.132.042.27.063.408.063.264 0 .522-.071.749-.205.296-.175.516-.453.62-.78l8.455-26.797a4.183 4.183 0 0 0 4.162-4.206 4.184 4.184 0 0 0-4.206-4.164 4.131 4.131 0 0 0-1.794.42L122.025 43.53a1.395 1.395 0 0 0-1.972 1.973l11.163 11.176a4.104 4.104 0 0 0 1.174 5.051l-8.056 25.535c-15.92-5.865-24.072-23.525-18.208-39.445 5.865-15.92 23.524-24.072 39.445-18.207 15.92 5.864 24.072 23.524 18.207 39.444A30.72 30.72 0 0 1 147.455 86.5l-.871-4.1a1.394 1.394 0 0 0-2.293-.752l-8.393 7.494a1.395 1.395 0 0 0 .505 2.372l10.716 3.42a1.394 1.394 0 0 0 1.791-1.619l-.855-4.022a33.37 33.37 0 0 0 20.406-30.82Zm-33.478-1.394a1.395 1.395 0 1 1 0 2.79 1.395 1.395 0 0 1 0-2.79Zm4.594 32.515 4.778-4.262 1.319 6.213-6.097-1.951Z" fill="#212121"/><path d="M133.588 31.967v2.79a1.394 1.394 0 1 0 2.79 0v-2.79a1.395 1.395 0 0 0-2.79 0ZM108.479 57.077a1.395 1.395 0 1 0 0 2.79h2.79a1.395 1.395 0 0 0 0-2.79h-2.79ZM161.487 59.867a1.394 1.394 0 0 0 0-2.79h-2.79a1.395 1.395 0 1 0 0 2.79h2.79Z" fill="#2196F3"/></g><defs><clipPath id="a"><path fill="#fff" transform="translate(100 25)" d="M0 0h70v70H0z"/></symbol>
<symbol id="group3"><path d="M132.65 57.735h2.332V68.23h-2.332V57.735ZM141.978 62.4h2.332v5.83h-2.332V62.4ZM123.321 65.897h2.332v2.333h-2.332v-2.333ZM116.325 64.731h2.332v3.499h-2.332V64.73Z" fill="#2196F3"/><path d="M103.498 86.886h55.971a3.498 3.498 0 0 0 3.498-3.498v-4.664a3.498 3.498 0 0 0-3.498-3.498h-1.166v-29.08l6.623-6.274a3.518 3.518 0 1 0-1.633-1.668l-4.99 4.73v-2.69a3.499 3.499 0 0 0-3.498-3.498h-46.643a3.499 3.499 0 0 0-3.498 3.498v34.982h-1.166A3.498 3.498 0 0 0 100 78.724v4.664a3.498 3.498 0 0 0 3.498 3.498Zm62.967-51.306a1.166 1.166 0 1 1 0 2.332 1.166 1.166 0 0 1 0-2.332Zm-59.469 4.664c0-.644.522-1.166 1.166-1.166h46.643c.644 0 1.166.522 1.166 1.166v4.897l-2.332 2.216v-4.78c0-.645-.523-1.167-1.166-1.167h-41.978c-.644 0-1.167.522-1.167 1.166v29.152c0 .644.523 1.166 1.167 1.166h41.978c.643 0 1.166-.522 1.166-1.166V50.565l2.332-2.21v26.87h-48.975v-34.98Zm10.495 15.159a3.498 3.498 0 1 0 2.422 6.012l4.053 2.034a1.166 1.166 0 0 0 1.392-.268l8.616-9.694 8.47 6.347c.455.34 1.089.304 1.501-.086l7.361-6.973v17.787h-39.645v-26.82h39.645v5.82l-8.25 7.813-8.541-6.403a1.167 1.167 0 0 0-1.571.157l-8.734 9.828-3.265-1.633a3.34 3.34 0 0 0 .044-.423 3.498 3.498 0 0 0-3.498-3.498Zm1.166 3.498a1.166 1.166 0 1 1-2.332 0 1.166 1.166 0 0 1 2.332 0Zm6.996 18.657h11.661v1.166c0 .644-.522 1.166-1.166 1.166h-9.329a1.166 1.166 0 0 1-1.166-1.166v-1.166Zm-23.321 1.166c0-.644.522-1.166 1.166-1.166h19.823v1.166a3.498 3.498 0 0 0 3.498 3.498h9.329a3.498 3.498 0 0 0 3.498-3.498v-1.166h19.823c.644 0 1.166.522 1.166 1.166v4.664c0 .644-.522 1.166-1.166 1.166h-55.971a1.166 1.166 0 0 1-1.166-1.166v-4.664Z" fill="#212121"/></symbol>
<symbol id="group4"><path d="M169.943 34.896a1.166 1.166 0 0 0-.941-.793l-4.179-.608-1.87-3.787c-.392-.798-1.7-.798-2.092 0l-1.87 3.787-4.18.608a1.164 1.164 0 0 0-.647 1.99l3.025 2.948-.714 4.162c-.074.438.105.88.463 1.141.363.264.837.297 1.23.09l3.738-1.967 3.738 1.966a1.17 1.17 0 0 0 1.23-.089c.359-.26.539-.703.463-1.14l-.714-4.163 3.025-2.949a1.17 1.17 0 0 0 .295-1.196Zm-5.387 2.903a1.165 1.165 0 0 0-.335 1.033l.417 2.437-2.188-1.15a1.163 1.163 0 0 0-1.088 0l-2.188 1.15.417-2.437a1.164 1.164 0 0 0-.335-1.033l-1.772-1.727 2.448-.355c.38-.055.708-.294.879-.639l1.094-2.216 1.094 2.216c.171.344.498.584.879.639l2.447.355-1.769 1.727ZM157.167 69.892h-2.333v2.334h2.333v-2.334ZM157.167 74.56h-2.333v2.332h2.333V74.56ZM159.5 72.226h-2.333v2.333h2.333v-2.333ZM154.834 72.226H152.5v2.333h2.334v-2.333ZM149 82.726h-2.333v2.333H149v-2.333ZM149 87.393h-2.333v2.333H149v-2.333ZM151.334 85.06H149v2.333h2.334v-2.334ZM146.667 85.06h-2.334v2.333h2.334v-2.334ZM135 78.06h-2.333v2.333H135v-2.334ZM135 82.726h-2.333v2.333H135v-2.333ZM137.333 80.392H135v2.334h2.333v-2.334ZM132.667 80.392h-2.334v2.334h2.334v-2.334ZM112.833 38.392H110.5v2.333h2.333v-2.333ZM112.833 43.059H110.5v2.333h2.333V43.06ZM115.166 40.725h-2.333v2.334h2.333v-2.334ZM110.333 41H108v2.333h2.333V41Z" fill="#2196F3"/><path d="M154.064 55.974a3.881 3.881 0 0 0-2.6-1.541 3.887 3.887 0 0 0-2.931.77l-2.738 2.098-.001.002-4.151 3.1-2.971-1.184c5.297-2.376 8.999-7.674 8.999-13.825 0-8.363-6.831-15.167-15.227-15.167-8.397 0-15.228 6.804-15.228 15.167 0 3.031.907 5.85 2.45 8.222l-6.046-.053h-.01c-.019 0-.034.01-.051.01a1.145 1.145 0 0 0-.34.069c-.028.01-.057.016-.084.029-.014.005-.028.007-.042.014l-7.072 3.491c-.001 0-.003 0-.003.002l-4.141 1.991a.856.856 0 0 0-.138.077 3.894 3.894 0 0 0-1.309 5.022 3.884 3.884 0 0 0 2.31 1.945 3.892 3.892 0 0 0 3.016-.281l3.036-1.615 4.952-2.558 2.968-.017-11.904 11.846-.003.003-2.929 2.916a3.61 3.61 0 0 0-1.072 2.576 3.62 3.62 0 0 0 1.072 2.579 3.65 3.65 0 0 0 2.58 1.062c.936 0 1.869-.355 2.582-1.062l2.875-2.863 3.808-2.843 1.97 1.962-3.853 3.837-.004.002-2.928 2.917a3.608 3.608 0 0 0-1.073 2.576c0 .973.381 1.889 1.073 2.579a3.649 3.649 0 0 0 2.58 1.061c.935 0 1.871-.354 2.582-1.061l2.93-2.917 4.686-4.667.003-.003 2.208-2.188-.008-.008c.014-.014.034-.019.048-.034l11.3-12.377 7.593 1.08c.055.008.11.012.165.012.141 0 .277-.034.409-.084.039-.014.072-.033.109-.051.042-.021.086-.033.126-.06l7.029-4.666c.026-.018.04-.046.064-.065.028-.022.063-.031.089-.056l2.781-2.605a3.892 3.892 0 0 0 .464-5.166Zm-49.404 7.898a1.558 1.558 0 0 1-1.221.113 1.564 1.564 0 0 1-.465-2.755l2.874-1.383.692 2.022.29.85-2.17 1.153Zm7.65-3.998-3.387 1.75-.558-1.633-.402-1.174 4.434-2.189-.087 3.246Zm33.03-14.482c0 2.009-.479 3.904-1.31 5.599l-9.147-4.155a4.067 4.067 0 0 0-1.724-3.035l3.202-10.633c5.202 1.655 8.979 6.507 8.979 12.224Zm-25.788 0c0-7.076 5.784-12.834 12.894-12.834.553 0 1.094.047 1.63.115l-3.133 10.398c-.042 0-.081-.012-.124-.012-2.259 0-4.097 1.831-4.097 4.083 0 2.252 1.838 4.083 4.097 4.083 1.519 0 2.831-.838 3.539-2.066l8.449 3.839c-2.351 3.164-6.113 5.227-10.361 5.227-7.11 0-12.894-5.757-12.894-12.833Zm13.029 1.75c0 .965-.791 1.75-1.762 1.75a1.759 1.759 0 0 1-1.763-1.75c0-.965.791-1.75 1.763-1.75.971 0 1.762.785 1.762 1.75Zm-27.189 32.865a1.331 1.331 0 0 1-1.869.002 1.297 1.297 0 0 1 0-1.847l2.104-2.097 1.862 1.854-2.097 2.088Zm7.03 8.167a1.33 1.33 0 0 1-1.87.002 1.297 1.297 0 0 1 0-1.847l2.106-2.098.881.876.982.978-2.099 2.09Zm7.616-7.588-.003.002-3.861 3.85-.881-.876-.982-.977 3.857-3.84v-.001l.004-.002c.087-.088.142-.193.196-.297.015-.03.044-.056.057-.087.036-.09.042-.187.056-.281.007-.054.03-.104.03-.16 0-.077-.028-.153-.044-.23-.014-.07-.014-.141-.041-.209a1.165 1.165 0 0 0-.199-.3c-.023-.027-.031-.06-.055-.084h-.002l-.002-.004-3.515-3.5c-.037-.038-.085-.053-.127-.084a1.119 1.119 0 0 0-.19-.127 1.107 1.107 0 0 0-.205-.07 1.112 1.112 0 0 0-.225-.044 1.125 1.125 0 0 0-.208.01c-.079.01-.152.02-.228.045-.074.023-.139.06-.206.098-.044.024-.093.033-.133.063l-3.88 2.896-1.97-1.963 5.248-5.22 9.538 9.382-2.029 2.01Zm14.916-15.349c-.033-.004-.065.008-.099.006a1.151 1.151 0 0 0-.252.015 1.065 1.065 0 0 0-.403.15c-.066.04-.125.081-.182.134-.028.024-.062.036-.088.064l-10.277 11.256-9.468-9.311 6.197-6.165a1.167 1.167 0 0 0-.83-1.993l-4.854.028.061-3.516 6.79.058a15.201 15.201 0 0 0 10.897 4.596c.957 0 1.89-.1 2.799-.268.087.07.174.14.283.185l5.272 2.1.333 1.66.39 1.936-6.569-.935Zm8.84.39-.684-3.408 3.164-2.363.828 1.1 1.243 1.65-4.551 3.02Zm8.211-6.193-1.832 1.718-2.037-2.705 1.818-1.394c.34-.261.768-.367 1.188-.313.422.06.796.28 1.05.622a1.562 1.562 0 0 1-.187 2.072Z" fill="#212121"/><path d="m129.755 65.565-4.688-4.667a1.165 1.165 0 0 0-1.646 0l-4.687 4.667c-.219.22-.343.517-.343.827 0 .31.122.608.343.827l4.687 4.667a1.164 1.164 0 0 0 1.646 0l4.688-4.667a1.168 1.168 0 0 0 0-1.654Zm-5.511 3.848-3.033-3.02 3.033-3.021 3.035 3.02-3.035 3.02ZM137.547 36.092l-.564 2.266c.155.039 3.801.988 3.801 4.7h2.334c0-4.412-3.644-6.486-5.571-6.966ZM143.118 45.392h-2.334v2.333h2.334v-2.333Z" fill="#212121"/></symbol>
</defs></svg>